<svg width="1595" height="370" viewBox="0 0 1595 370" fill="none" xmlns="http://www.w3.org/2000/svg">
<path d="M368.477 95.2734H100.098L44.2383 151.387L59.4727 166.621L88.418 137.676H280.371L368.477 226.035V370H60.9961L0.3125 309.062V232.637H57.9492L100.098 274.785H273.77V265.391L241.27 232.637H88.418L0.3125 144.023V60.9961L60.9961 0.3125H368.477V95.2734ZM603.34 37.6367L640.41 0.3125H777.266V95.2734H640.41V274.785H777.266V370H409.102V274.785H545.957V95.2734L584.805 55.918L569.57 40.6836L515.234 95.2734H409.102V0.3125H566.016L603.34 37.6367ZM1186.05 60.9961V144.023L1145.18 185.156L1186.05 226.035V370H1091.35V232.637H912.598V370H817.891V125.996L943.066 0.3125H1125.62L1186.05 60.9961ZM1321.39 100.352C1287.62 134.375 1304.38 117.363 1270.61 151.387L1285.84 166.621L1314.79 137.676H1500.14V0.3125H1594.84V311.003L1535.85 370H1500.14V232.637H1321.39V370H1226.68V226.035L1267.56 185.156L1226.68 144.023V0.3125H1321.39V100.352ZM982.422 95.2734C954.238 123.457 968.203 109.238 940.273 137.676H1097.95L1126.89 166.621L1142.13 151.387L1086.27 95.2734H982.422Z" fill="white"/>
</svg>
