<svg width="1920" height="1080" viewBox="0 0 1920 1080" fill="none" xmlns="http://www.w3.org/2000/svg" preserveAspectRatio="none">
<path d="M1870 0C1897.61 2.06163e-05 1920 22.3858 1920 50V1030C1920 1057.61 1897.61 1080 1870 1080H50C22.3858 1080 1.28869e-06 1057.61 0 1030V146C0 120.043 21.0426 99 47 99H1511C1538.61 99 1561 76.6142 1561 49V50C1561 22.3858 1583.39 0 1611 0H1870Z" fill="#FF9A63"/>
<path d="M1870 0C1897.61 2.06163e-05 1920 22.3858 1920 50V1030C1920 1057.61 1897.61 1080 1870 1080H50C22.3858 1080 1.28869e-06 1057.61 0 1030V146C0 120.043 21.0426 99 47 99H1511C1538.61 99 1561 76.6142 1561 49V50C1561 22.3858 1583.39 0 1611 0H1870Z" fill="url(#paint0_linear_15_21)"/>
<defs>
<linearGradient id="paint0_linear_15_21" x1="705.285" y1="-31.3483" x2="1736.77" y2="1325.62" gradientUnits="userSpaceOnUse">
<stop stop-color="#FF9A63"/>
<stop offset="1" stop-color="#B42950"/>
</linearGradient>
</defs>
</svg>
